name Walk3.mot
datacolumns 19
datarows 30
range 2.01000000 2.15500000
endheader

                time	   L_ground_force_vx	   L_ground_force_vy	   L_ground_force_vz	   L_ground_force_px	   L_ground_force_py	   L_ground_force_pz	   R_ground_force_vx	   R_ground_force_vy	   R_ground_force_vz	   R_ground_force_px	   R_ground_force_py	   R_ground_force_pz	   L_ground_torque_x	   L_ground_torque_y	   L_ground_torque_z	   R_ground_torque_x	   R_ground_torque_y	   R_ground_torque_z	
          2.01000000	         -0.00566403	         -0.00653073	         -0.00267600	         -0.00006445	          0.00000000	         -0.00001685	        -22.72779057	        826.69900274	        -76.66699537	          0.43641845	          0.00000000	          0.18852954	          0.00000000	          0.00017299	          0.00000000	          0.00000000	          8.92502308	          0.00000000	
          2.01500000	         -0.00740103	         -0.01274086	         -0.00153223	         -0.00004111	          0.00000000	         -0.00001042	        -21.08270383	        818.16356193	        -75.49159465	          0.43774369	          0.00000000	          0.18877055	          0.00000000	          0.00013159	          0.00000000	          0.00000000	          8.60603886	          0.00000000	
          2.02000000	         -0.00792961	         -0.01571565	         -0.00067757	         -0.00002290	          0.00000000	         -0.00000547	        -19.50802757	        810.62765754	        -74.42245453	          0.43901745	          0.00000000	          0.18901013	          0.00000000	          0.00009463	          0.00000000	          0.00000000	          8.29839164	          0.00000000	
          2.02500000	         -0.00764143	         -0.01638040	         -0.00007591	         -0.00000940	          0.00000000	         -0.00000186	        -17.98482616	        804.09157325	        -73.47148597	          0.44023976	          0.00000000	          0.18924818	          0.00000000	          0.00006345	          0.00000000	          0.00000000	          7.99881959	          0.00000000	
          2.03000000	         -0.00685229	         -0.01551121	          0.00031593	         -0.00000001	          0.00000000	          0.00000060	        -16.49432593	        798.56592536	        -72.65410057	          0.44141055	          0.00000000	          0.18948508	          0.00000000	          0.00003843	          0.00000000	          0.00000000	          7.70426625	          0.00000000	
          2.03500000	         -0.00580429	         -0.01372706	          0.00054222	          0.00000602	          0.00000000	          0.00000213	        -15.01903604	        794.06545804	        -71.98810160	          0.44252918	          0.00000000	          0.18972200	          0.00000000	          0.00001935	          0.00000000	          0.00000000	          7.41202744	          0.00000000	
          2.04000000	         -0.00467318	         -0.01149728	          0.00064446	          0.00000941	          0.00000000	          0.00000294	        -13.54387751	        790.60294315	        -71.49036832	          0.44359397	          0.00000000	          0.18996008	          0.00000000	          0.00000558	          0.00000000	          0.00000000	          7.11979369	          0.00000000	
          2.04500000	         -0.00357823	         -0.00915806	          0.00065905	          0.00001084	          0.00000000	          0.00000323	        -12.05696127	        788.18450403	        -71.17367401	          0.44460317	          0.00000000	          0.19019992	          0.00000000	         -0.00000369	          0.00000000	          0.00000000	          6.82580148	          0.00000000	
          2.05000000	         -0.00259307	         -0.00693368	          0.00061628	          0.00001089	          0.00000000	          0.00000316	        -10.54994389	        786.80743875	        -71.04329697	          0.44555677	          0.00000000	          0.19044178	          0.00000000	         -0.00000934	          0.00000000	          0.00000000	          6.52882969	          0.00000000	
          2.05500000	         -0.00175622	         -0.00495886	          0.00054012	          0.00001007	          0.00000000	          0.00000286	         -9.01649741	        786.46089781	        -71.09416546	          0.44645591	          0.00000000	          0.19068506	          0.00000000	         -0.00001223	          0.00000000	          0.00000000	          6.22823698	          0.00000000	
          2.06000000	         -0.00108067	         -0.00330025	          0.00044856	          0.00000875	          0.00000000	          0.00000245	         -7.45083422	        787.12640436	        -71.31020030	          0.44730261	          0.00000000	          0.19092863	          0.00000000	         -0.00001311	          0.00000000	          0.00000000	          5.92347719	          0.00000000	
          2.06500000	         -0.00056198	         -0.00197561	          0.00035437	          0.00000721	          0.00000000	          0.00000199	         -5.84754665	        788.77744032	        -71.66609207	          0.44809945	          0.00000000	          0.19117193	          0.00000000	         -0.00001264	          0.00000000	          0.00000000	          5.61384626	          0.00000000	
          2.07000000	         -0.00018492	         -0.00096990	          0.00026594	          0.00000565	          0.00000000	          0.00000154	         -4.20144522	        791.38035813	        -72.13067622	          0.44884959	          0.00000000	          0.19141437	          0.00000000	         -0.00001134	          0.00000000	          0.00000000	          5.29871536	          0.00000000	
          2.07500000	          0.00007152	         -0.00024825	          0.00018820	          0.00000420	          0.00000000	          0.00000112	         -2.50751201	        794.89413787	        -72.66965031	          0.44955848	          0.00000000	          0.19165502	          0.00000000	         -0.00000961	          0.00000000	          0.00000000	          4.97760914	          0.00000000	
          2.08000000	          0.00023030	          0.00023417	          0.00012346	          0.00000294	          0.00000000	          0.00000077	         -0.76151341	        799.27187112	        -73.24786543	          0.45023365	          0.00000000	          0.19189261	          0.00000000	         -0.00000774	          0.00000000	          0.00000000	          4.65033786	          0.00000000	
          2.08500000	          0.00031392	          0.00052501	          0.00007218	          0.00000190	          0.00000000	          0.00000048	          1.03795251	        804.46415925	        -73.83356966	          0.45088363	          0.00000000	          0.19212550	          0.00000000	         -0.00000593	          0.00000000	          0.00000000	          4.31715476	          0.00000000	
          2.09000000	          0.00034271	          0.00067000	          0.00003359	          0.00000108	          0.00000000	          0.00000026	          2.88906016	        810.42202570	        -74.40418174	          0.45151730	          0.00000000	          0.19235204	          0.00000000	         -0.00000430	          0.00000000	          0.00000000	          3.97879470	          0.00000000	
          2.09500000	          0.00033407	          0.00070999	          0.00000618	          0.00000047	          0.00000000	          0.00000010	          4.78828533	        817.09969136	        -74.94948779	          0.45214389	          0.00000000	          0.19257122	          0.00000000	         -0.00000291	          0.00000000	          0.00000000	          3.63590177	          0.00000000	
          2.10000000	          0.00030211	          0.00067948	         -0.00001188	          0.00000005	          0.00000000	         -0.00000001	          6.73164090	        824.45367655	        -75.47112693	          0.45277316	          0.00000000	          0.19278306	          0.00000000	         -0.00000179	          0.00000000	          0.00000000	          3.28873763	          0.00000000	
          2.10500000	          0.00025772	          0.00060618	         -0.00002252	         -0.00000023	          0.00000000	         -0.00000009	          8.71530620	        832.44002492	        -75.98052043	          0.45341464	          0.00000000	          0.19298818	          0.00000000	         -0.00000093	          0.00000000	          0.00000000	          2.93747816	          0.00000000	
          2.11000000	          0.00020887	          0.00051123	         -0.00002757	         -0.00000039	          0.00000000	         -0.00000012	         10.73523955	        841.01388936	        -76.49568775	          0.45407706	          0.00000000	          0.19318744	          0.00000000	         -0.00000031	          0.00000000	          0.00000000	          2.58261566	          0.00000000	
          2.11500000	          0.00016103	          0.00040991	         -0.00002862	         -0.00000046	          0.00000000	         -0.00000014	         12.78613422	        850.12726421	        -77.03687153	          0.45476894	          0.00000000	          0.19338169	          0.00000000	          0.00000012	          0.00000000	          0.00000000	          2.22505620	          0.00000000	
          2.12000000	          0.00011761	          0.00031252	         -0.00002704	         -0.00000047	          0.00000000	         -0.00000014	         14.86003609	        859.72465218	        -77.62324490	          0.45549885	          0.00000000	          0.19357203	          0.00000000	          0.00000038	          0.00000000	          0.00000000	          1.86584415	          0.00000000	
          2.12500000	          0.00008046	          0.00022534	         -0.00002388	         -0.00000044	          0.00000000	         -0.00000013	         16.94616591	        869.73857173	        -78.27106698	          0.45627457	          0.00000000	          0.19376061	          0.00000000	          0.00000052	          0.00000000	          0.00000000	          1.50605971	          0.00000000	
          2.13000000	          0.00005028	          0.00015162	         -0.00001997	         -0.00000039	          0.00000000	         -0.00000011	         19.03300305	        880.08507612	        -78.99165137	          0.45710376	          0.00000000	          0.19394962	          0.00000000	          0.00000057	          0.00000000	          0.00000000	          1.14679873	          0.00000000	
          2.13500000	          0.00002695	          0.00009235	         -0.00001588	         -0.00000032	          0.00000000	         -0.00000009	         21.10955958	        890.66202549	        -79.78952995	          0.45799322	          0.00000000	          0.19414126	          0.00000000	          0.00000055	          0.00000000	          0.00000000	          0.78860157	          0.00000000	
          2.14000000	          0.00000985	          0.00004704	         -0.00001200	         -0.00000025	          0.00000000	         -0.00000007	         23.16713657	        901.35621636	        -80.66112450	          0.45894801	          0.00000000	          0.19433781	          0.00000000	          0.00000050	          0.00000000	          0.00000000	          0.43094255	          0.00000000	
          2.14500000	         -0.00000189	          0.00001426	         -0.00000857	         -0.00000019	          0.00000000	         -0.00000005	         25.20069782	        912.05163800	        -81.59572124	          0.45997208	          0.00000000	          0.19454114	          0.00000000	          0.00000043	          0.00000000	          0.00000000	          0.07217254	          0.00000000	
          2.15000000	         -0.00000927	         -0.00000789	         -0.00000568	         -0.00000013	          0.00000000	         -0.00000004	         27.20913324	        922.63728807	        -82.57784597	          0.46106758	          0.00000000	          0.19475195	          0.00000000	          0.00000035	          0.00000000	          0.00000000	         -0.29006705	          0.00000000	
          2.15500000	         -0.00001327	         -0.00002147	         -0.00000339	         -0.00000009	          0.00000000	         -0.00000002	         29.19596227	        933.01895358	        -83.58907667	          0.46223418	          0.00000000	          0.19497011	          0.00000000	          0.00000027	          0.00000000	          0.00000000	         -0.65860493	          0.00000000	
